<svg width="32" height="32" viewBox="0 0 32 32" fill="none" xmlns="http://www.w3.org/2000/svg">
<path fill-rule="evenodd" clip-rule="evenodd" d="M8.67691 11.4777C9.42091 11.4777 10.0609 12.0337 10.1659 12.7697C10.2509 13.3617 10.7679 13.8087 11.3679 13.8087H21.5979C22.1989 13.8087 22.7159 13.3627 22.8009 12.7717C22.9049 12.0367 23.5459 11.4807 24.2899 11.4807C24.7329 11.4837 25.1459 11.6747 25.4289 12.0057C25.7119 12.3347 25.8399 12.7717 25.7759 13.2027C25.6639 13.9857 25.3329 14.7147 24.8309 15.3117C25.3329 15.9097 25.6639 16.6387 25.7769 17.4257C25.8399 17.8527 25.7129 18.2887 25.4289 18.6197C25.1419 18.9507 24.7299 19.1397 24.2969 19.1427C23.5459 19.1427 22.9049 18.5867 22.7999 17.8507C22.7149 17.2567 22.1979 16.8087 21.5979 16.8087H11.3679C10.7679 16.8087 10.2509 17.2557 10.1659 17.8487C10.0609 18.5837 9.42091 19.1387 8.67691 19.1387C8.23691 19.1377 7.82291 18.9467 7.53791 18.6157C7.30491 18.3457 7.17391 17.9967 7.17391 17.6347V17.5537L7.19291 17.4027C7.30391 16.6287 7.63391 15.9037 8.13591 15.3087C7.63391 14.7097 7.30191 13.9807 7.18991 13.1947C7.12291 12.7797 7.24891 12.3377 7.53791 12.0007C7.82491 11.6697 8.23691 11.4807 8.66991 11.4777H8.67391H8.67691Z" fill="white" style="fill:white;fill-opacity:1;"/>
<path fill-rule="evenodd" clip-rule="evenodd" d="M9.17515 17.7057C9.33015 16.6237 10.2732 15.8077 11.3672 15.8077H21.5972C22.6912 15.8077 23.6342 16.6257 23.7892 17.7097C23.8242 17.9567 24.0392 18.1427 24.2892 18.1427C24.4352 18.1417 24.5732 18.0787 24.6692 17.9687C24.7632 17.8577 24.8072 17.7127 24.7862 17.5667C24.6542 16.6447 24.1152 15.8147 23.3322 15.3117C24.1152 14.8077 24.6542 13.9787 24.7862 13.0557C24.8072 12.9137 24.7632 12.7657 24.6682 12.6557C24.5732 12.5447 24.4352 12.4817 24.2892 12.4807C24.0392 12.4807 23.8242 12.6667 23.7892 12.9137C23.6342 13.9937 22.6922 14.8077 21.5972 14.8077H11.3672C10.2732 14.8077 9.33015 13.9917 9.17515 12.9097C9.14015 12.6627 8.92515 12.4767 8.67515 12.4767C8.53015 12.4777 8.39115 12.5417 8.29515 12.6517C8.20115 12.7627 8.15515 12.9077 8.17815 13.0527C8.31115 13.9747 8.84915 14.8047 9.63215 15.3087C8.84915 15.8127 8.31115 16.6417 8.17815 17.5637C8.17515 17.5867 8.17315 17.6107 8.17315 17.6347C8.17315 17.7547 8.21615 17.8717 8.29515 17.9637C8.39115 18.0747 8.52915 18.1377 8.67615 18.1387C8.92515 18.1387 9.14015 17.9527 9.17515 17.7057Z" fill="black" style="fill:black;fill-opacity:1;"/>
</svg>
