<svg width="32" height="32" viewBox="0 0 32 32" fill="none" xmlns="http://www.w3.org/2000/svg">
<path fill-rule="evenodd" clip-rule="evenodd" d="M5.30099 10.8543L13.684 19.2553C14.737 20.3113 13.99 22.1133 12.499 22.1133L11.275 22.1132L12.4908 25.0009C12.7038 25.5069 12.7068 26.0669 12.4998 26.5759C12.2918 27.0859 11.8978 27.4839 11.3898 27.6969C11.1338 27.8039 10.8658 27.8579 10.5918 27.8579C9.76079 27.8579 9.01579 27.3629 8.69379 26.5969L7.41599 23.5592L6.58399 24.2973C5.50299 25.2533 3.79999 24.4863 3.79999 23.0423V11.4753C3.79999 10.6913 4.74699 10.2993 5.30099 10.8543Z" fill="white" style="fill:white;fill-opacity:1;"/>
<path fill-rule="evenodd" clip-rule="evenodd" d="M4.7995 12.1234C4.7995 11.9924 4.9585 11.9264 5.0505 12.0194L12.9585 19.9444C13.3895 20.3764 13.0835 21.1134 12.4735 21.1134L9.7695 21.1119L11.5691 25.3878C11.7961 25.9278 11.5421 26.5488 11.0031 26.7748C10.4621 27.0018 9.8421 26.7488 9.6161 26.2098L7.7985 21.8859L5.9385 23.5334C5.5225 23.9014 4.88062 23.6449 4.80654 23.1215L4.7995 23.0204V12.1234Z" fill="black" style="fill:black;fill-opacity:1;"/>
<circle cx="20.205" cy="12.135" r="7.995" fill="url(#paint0_linear_1_302)"/>
<g filter="url(#filter0_d_1_302)">
<line x1="17.3581" y1="15.3793" x2="23.0493" y2="15.3793" stroke="white" style="stroke:white;stroke-opacity:1;" stroke-width="1.6262" stroke-linecap="round"/>
</g>
<g filter="url(#filter1_d_1_302)">
<line x1="15.7333" y1="12.1269" x2="24.6767" y2="12.1269" stroke="white" style="stroke:white;stroke-opacity:1;" stroke-width="1.6262" stroke-linecap="round"/>
</g>
<g filter="url(#filter2_d_1_302)">
<line x1="17.3531" y1="8.87446" x2="23.0443" y2="8.87446" stroke="white" style="stroke:white;stroke-opacity:1;" stroke-width="1.6262" stroke-linecap="round"/>
</g>
<defs>
<filter id="filter0_d_1_302" x="15.0871" y="13.1082" width="11.3175" height="5.62622" filterUnits="userSpaceOnUse" color-interpolation-filters="sRGB">
<feFlood flood-opacity="0" result="BackgroundImageFix"/>
<feColorMatrix in="SourceAlpha" type="matrix" values="0 0 0 0 0 0 0 0 0 0 0 0 0 0 0 0 0 0 127 0" result="hardAlpha"/>
<feOffset dx="0.542068" dy="0.542068"/>
<feGaussianBlur stdDeviation="1"/>
<feComposite in2="hardAlpha" operator="out"/>
<feColorMatrix type="matrix" values="0 0 0 0 0 0 0 0 0 0 0 0 0 0 0 0 0 0 0.25 0"/>
<feBlend mode="normal" in2="BackgroundImageFix" result="effect1_dropShadow_1_302"/>
<feBlend mode="normal" in="SourceGraphic" in2="effect1_dropShadow_1_302" result="shape"/>
</filter>
<filter id="filter1_d_1_302" x="13.4622" y="9.85585" width="14.5697" height="5.62619" filterUnits="userSpaceOnUse" color-interpolation-filters="sRGB">
<feFlood flood-opacity="0" result="BackgroundImageFix"/>
<feColorMatrix in="SourceAlpha" type="matrix" values="0 0 0 0 0 0 0 0 0 0 0 0 0 0 0 0 0 0 127 0" result="hardAlpha"/>
<feOffset dx="0.542068" dy="0.542068"/>
<feGaussianBlur stdDeviation="1"/>
<feComposite in2="hardAlpha" operator="out"/>
<feColorMatrix type="matrix" values="0 0 0 0 0 0 0 0 0 0 0 0 0 0 0 0 0 0 0.25 0"/>
<feBlend mode="normal" in2="BackgroundImageFix" result="effect1_dropShadow_1_302"/>
<feBlend mode="normal" in="SourceGraphic" in2="effect1_dropShadow_1_302" result="shape"/>
</filter>
<filter id="filter2_d_1_302" x="15.082" y="6.60341" width="11.3175" height="5.62622" filterUnits="userSpaceOnUse" color-interpolation-filters="sRGB">
<feFlood flood-opacity="0" result="BackgroundImageFix"/>
<feColorMatrix in="SourceAlpha" type="matrix" values="0 0 0 0 0 0 0 0 0 0 0 0 0 0 0 0 0 0 127 0" result="hardAlpha"/>
<feOffset dx="0.542068" dy="0.542068"/>
<feGaussianBlur stdDeviation="1"/>
<feComposite in2="hardAlpha" operator="out"/>
<feColorMatrix type="matrix" values="0 0 0 0 0 0 0 0 0 0 0 0 0 0 0 0 0 0 0.25 0"/>
<feBlend mode="normal" in2="BackgroundImageFix" result="effect1_dropShadow_1_302"/>
<feBlend mode="normal" in="SourceGraphic" in2="effect1_dropShadow_1_302" result="shape"/>
</filter>
<linearGradient id="paint0_linear_1_302" x1="20.205" y1="4.14001" x2="20.205" y2="20.13" gradientUnits="userSpaceOnUse">
<stop stop-color="#3EACE7" style="stop-color:#3EACE7;stop-color:color(display-p3 0.2431 0.6745 0.9059);stop-opacity:1;"/>
<stop offset="1" stop-color="#1866D8" style="stop-color:#1866D8;stop-color:color(display-p3 0.0941 0.4000 0.8471);stop-opacity:1;"/>
</linearGradient>
</defs>
</svg>
