<svg width="32" height="32" viewBox="0 0 32 32" fill="none" xmlns="http://www.w3.org/2000/svg">
<path fill-rule="evenodd" clip-rule="evenodd" d="M15.0745 7.5075C15.5845 6.9975 16.4115 6.9975 16.9215 7.5075L24.4885 15.0745C24.9985 15.5845 24.9985 16.4115 24.4885 16.9215L16.9215 24.4885C16.4115 24.9985 15.5845 24.9985 15.0745 24.4885L7.5075 16.9215C6.9975 16.4115 6.9975 15.5845 7.5075 15.0745L15.0745 7.5075Z" fill="white" style="fill:white;fill-opacity:1;"/>
<path fill-rule="evenodd" clip-rule="evenodd" d="M11.9985 18.8426C11.9985 19.2686 11.4825 19.4826 11.1805 19.1806L8.40451 16.4046C8.18051 16.1806 8.18051 15.8166 8.40451 15.5916L11.1805 12.8156C11.4825 12.5136 11.9985 12.7276 11.9985 13.1536L11.9991 14.9982H14.9981V11.9982L13.1537 11.9986C12.7561 11.9986 12.5432 11.5491 12.7621 11.2436L12.8157 11.1806L15.5917 8.4046C15.8157 8.1806 16.1797 8.1806 16.4047 8.4046L19.1807 11.1806C19.4827 11.4826 19.2687 11.9986 18.8427 11.9986L16.9981 11.9982V14.9982H19.9981V13.1538C19.9981 12.7562 20.4476 12.5433 20.7523 12.7622L20.8151 12.8158L23.5921 15.5918C23.8161 15.8158 23.8161 16.1798 23.5921 16.4048L20.8151 19.1808C20.5141 19.4828 19.9981 19.2688 19.9981 18.8428V16.9982H16.9981V19.9972L18.8425 19.9978C19.2401 19.9978 19.453 20.4473 19.2341 20.7528L19.1805 20.8158L16.4045 23.5918C16.1805 23.8158 15.8165 23.8158 15.5915 23.5918L12.8155 20.8158C12.5135 20.5138 12.7275 19.9978 13.1535 19.9978L14.9981 19.9972V16.9982H11.9991L11.9985 18.8426Z" fill="black" style="fill:black;fill-opacity:1;"/>
</svg>
