<svg width="32" height="32" viewBox="0 0 32 32" fill="none" xmlns="http://www.w3.org/2000/svg">
<path fill-rule="evenodd" clip-rule="evenodd" d="M16.5908 24.4696C15.6578 24.4696 14.8038 24.3016 14.0528 23.9706C13.2958 23.6366 12.6148 23.1206 12.0298 22.4386C11.4598 21.7736 10.9558 20.9226 10.5308 19.9106L8.61877 15.2056C8.47777 14.8646 8.46177 14.5376 8.57177 14.2376C8.69177 13.9146 8.92977 13.6856 9.26177 13.5746C9.38177 13.5316 9.51577 13.5066 9.64877 13.5066C9.81277 13.5066 9.97177 13.5436 10.1228 13.6166C10.3728 13.7386 10.5798 13.9556 10.7388 14.2626L12.3258 17.1216C12.4298 17.3016 12.5078 17.3676 12.5358 17.3876C12.5788 17.4166 12.6208 17.4286 12.6768 17.4286C12.7438 17.4286 12.7848 17.4096 12.8308 17.3576C12.8498 17.3356 12.8778 17.2406 12.8428 17.0346L11.7408 9.99761C11.6648 9.55661 11.7988 9.24961 11.9258 9.07161C12.1068 8.81661 12.3658 8.65361 12.6738 8.59961C12.7518 8.58961 12.8058 8.58561 12.8598 8.58561C13.1098 8.58561 13.3428 8.65961 13.5508 8.80361C13.8108 8.98361 13.9818 9.25761 14.0438 9.59661L15.1318 14.7286L15.1918 8.69961C15.1918 8.35861 15.3048 8.05661 15.5208 7.82861C15.7428 7.59261 16.0408 7.46761 16.3798 7.46761C16.7218 7.46761 17.0238 7.58861 17.2528 7.81861C17.4828 8.04761 17.6038 8.35361 17.6038 8.70261L17.5688 14.7526L18.5158 9.50661C18.5638 9.18061 18.7268 8.89961 18.9838 8.70861C19.1908 8.55461 19.4218 8.47661 19.6708 8.47661C19.7368 8.47661 19.8038 8.48261 19.8718 8.49361C20.1958 8.54361 20.4728 8.70661 20.6628 8.96261C20.7988 9.14461 20.9448 9.45761 20.8648 9.91161L19.9988 15.2276L21.2198 11.7606C21.3198 11.4456 21.4928 11.1996 21.7298 11.0426C21.9248 10.9126 22.1408 10.8466 22.3718 10.8466C22.4278 10.8466 22.4838 10.8506 22.5408 10.8586C22.8708 10.9156 23.1278 11.0796 23.3018 11.3366C23.4698 11.5866 23.5298 11.8846 23.4808 12.2206L22.3418 18.7956C22.0218 20.6436 21.4068 22.0586 20.5138 23.0016C19.5928 23.9756 18.2728 24.4696 16.5908 24.4696Z" fill="white" style="fill:white;fill-opacity:1;"/>
<path fill-rule="evenodd" clip-rule="evenodd" d="M21.8523 18.711L22.9893 12.148C23.0203 11.937 22.9873 11.759 22.8893 11.615C22.7923 11.47 22.6533 11.382 22.4733 11.351C22.3013 11.327 22.1453 11.363 22.0053 11.456C21.8643 11.55 21.7583 11.706 21.6883 11.925L20.4933 15.324C20.4383 15.473 20.3623 15.578 20.2643 15.64C20.1673 15.703 20.0513 15.723 19.9193 15.699C19.7943 15.676 19.6903 15.611 19.6083 15.506C19.5263 15.4 19.4933 15.281 19.5083 15.148L20.3763 9.82701C20.4153 9.60101 20.3783 9.41101 20.2643 9.25901C20.1513 9.10701 19.9933 9.01501 19.7903 8.98401C19.6023 8.95201 19.4323 8.99301 19.2803 9.10701C19.1283 9.22001 19.0363 9.38201 19.0053 9.59301L18.0673 14.902C18.0443 15.035 17.9833 15.138 17.8853 15.212C17.7883 15.287 17.6693 15.312 17.5283 15.289C17.3723 15.265 17.2573 15.206 17.1823 15.113C17.1083 15.019 17.0713 14.898 17.0713 14.749L17.1063 8.70201C17.1063 8.48401 17.0383 8.30601 16.9013 8.16901C16.7643 8.03301 16.5903 7.96401 16.3803 7.96401C16.1763 7.96401 16.0103 8.03301 15.8823 8.16901C15.7533 8.30601 15.6883 8.48401 15.6883 8.70201L15.6533 14.796C15.6533 14.937 15.6043 15.054 15.5073 15.148C15.4093 15.242 15.2943 15.289 15.1613 15.289C15.0283 15.289 14.9173 15.247 14.8273 15.165C14.7373 15.083 14.6763 14.972 14.6453 14.831L13.5553 9.68701C13.5163 9.47601 13.4213 9.31801 13.2683 9.21201C13.1163 9.10701 12.9463 9.06601 12.7583 9.08901C12.5793 9.12001 12.4363 9.21001 12.3313 9.35901C12.2253 9.50701 12.1923 9.69501 12.2313 9.92101L13.3333 16.953C13.3873 17.281 13.3443 17.525 13.2043 17.685C13.0633 17.846 12.8873 17.926 12.6763 17.926C12.5203 17.926 12.3803 17.883 12.2553 17.797C12.1303 17.711 12.0083 17.566 11.8913 17.363L10.2983 14.492C10.1883 14.281 10.0573 14.138 9.90527 14.064C9.75327 13.99 9.59027 13.984 9.41927 14.046C9.23127 14.109 9.10426 14.23 9.03826 14.41C8.97126 14.589 8.98526 14.792 9.07926 15.019L10.9893 19.719C11.3953 20.687 11.8683 21.486 12.4073 22.115C12.9463 22.744 13.5613 23.211 14.2533 23.515C14.9443 23.82 15.7233 23.972 16.5903 23.972C18.1373 23.972 19.3253 23.535 20.1533 22.66C20.9813 21.785 21.5483 20.469 21.8523 18.711ZM10.0283 20.058L8.16526 15.465C8.03226 15.136 7.97926 14.824 8.00726 14.527C8.03426 14.23 8.12826 13.972 8.28826 13.753C8.44826 13.535 8.64926 13.363 8.89126 13.238C9.13326 13.12 9.39726 13.066 9.68226 13.074C9.96726 13.081 10.2433 13.163 10.5083 13.32C10.7743 13.476 10.9973 13.714 11.1763 14.035L12.1023 15.805C12.1263 15.851 12.1573 15.871 12.1963 15.863C12.2353 15.855 12.2513 15.824 12.2433 15.769L11.2473 10.097C11.1763 9.73001 11.1923 9.40201 11.2943 9.11301C11.3953 8.82401 11.5593 8.58901 11.7863 8.41001C12.0123 8.23001 12.2743 8.11701 12.5713 8.07001C12.8683 8.02301 13.1533 8.05201 13.4263 8.15801C13.7003 8.26301 13.9343 8.43701 14.1303 8.67901C14.3253 8.92101 14.4623 9.22201 14.5403 9.58101L14.6803 10.343V8.70201C14.6803 8.18701 14.8413 7.76501 15.1613 7.43701C15.4813 7.10901 15.8873 6.94501 16.3803 6.94501C16.8953 6.94501 17.3113 7.11301 17.6283 7.44901C17.9443 7.78501 18.1023 8.21801 18.1023 8.74901L18.0793 9.25301C18.1883 8.78501 18.4173 8.43501 18.7643 8.20401C19.1123 7.97401 19.5013 7.89401 19.9303 7.96401C20.2273 8.01101 20.4913 8.12401 20.7213 8.30401C20.9523 8.48401 21.1243 8.71601 21.2373 9.00101C21.3503 9.28601 21.3833 9.61301 21.3373 9.98001L21.2373 10.9075C21.2179 10.8192 21.3253 10.7033 21.5593 10.56C21.9113 10.345 22.2983 10.273 22.7193 10.343C22.9933 10.398 23.2333 10.509 23.4403 10.677C23.6473 10.845 23.7993 11.07 23.8973 11.351C23.9953 11.632 24.0123 11.952 23.9503 12.312L22.8953 18.816C22.5673 20.84 21.8833 22.385 20.8443 23.451C19.8053 24.517 18.3763 25.051 16.5553 25.051C15.0163 25.051 13.7163 24.631 12.6533 23.791C11.5903 22.951 10.7153 21.707 10.0283 20.058Z" fill="black" style="fill:black;fill-opacity:1;"/>
</svg>
