<svg width="32" height="32" viewBox="0 0 32 32" fill="none" xmlns="http://www.w3.org/2000/svg">
<path d="M9.43077 23.5425C9.22345 22.7912 9.16001 21.9868 9.26814 21.1655C9.70067 17.8802 12.7146 15.5675 16 16C13.9827 18.6289 14.4786 22.3954 17.1075 24.4127C17.7638 24.9163 18.491 25.2632 19.2441 25.4595C15.7798 26.6513 12.0545 25.8241 9.43077 23.5425Z" fill="url(#paint0_linear_2063_183)"/>
<path d="M19.2441 25.4595C18.491 25.2632 17.7638 24.9163 17.1075 24.4127C14.4786 22.3954 13.9827 18.6289 16 16C17.2681 19.0615 20.7779 20.5153 23.8394 19.2472C24.6041 18.9304 25.2685 18.4738 25.8152 17.9193C25.1913 21.0944 23.0405 23.9077 19.8268 25.2388C19.6336 25.3188 19.4393 25.3924 19.2441 25.4595Z" fill="url(#paint1_linear_2063_183)"/>
<path d="M25.8152 17.9193C25.2684 18.4738 24.6041 18.9304 23.8394 19.2472C20.7779 20.5153 17.2681 19.0615 16 16C19.2853 16.4325 22.2993 14.1198 22.7318 10.8345C22.8399 10.0132 22.7765 9.20878 22.5692 8.45747C23.7001 9.44089 24.6263 10.6945 25.2388 12.1732C26.0211 14.0619 26.1819 16.0531 25.8152 17.9193Z" fill="url(#paint2_linear_2063_183)"/>
<path d="M22.5692 8.45747C22.7765 9.20878 22.8399 10.0132 22.7318 10.8345C22.2993 14.1198 19.2853 16.4325 16 16C18.0172 13.3711 17.5214 9.60457 14.8924 7.58731C14.2362 7.08373 13.509 6.73676 12.7558 6.5405C16.2201 5.34874 19.9454 6.17587 22.5692 8.45747Z" fill="url(#paint3_linear_2063_183)"/>
<path d="M12.7559 6.54049C13.509 6.73676 14.2362 7.08373 14.8925 7.58731C17.5214 9.60457 18.0173 13.3711 16 16C14.7319 12.9385 11.2221 11.4847 8.16063 12.7528C7.39593 13.0696 6.73154 13.5262 6.18481 14.0807C6.80873 10.9056 8.95951 8.09234 12.1732 6.7612C12.3664 6.68116 12.5607 6.60762 12.7559 6.54049Z" fill="url(#paint4_linear_2063_183)"/>
<path d="M6.18478 14.0807C6.7315 13.5262 7.39589 13.0696 8.16059 12.7528C11.2221 11.4847 14.7319 12.9385 16 16C12.7146 15.5675 9.70066 17.8802 9.26814 21.1655C9.16001 21.9868 9.22345 22.7912 9.43077 23.5425C8.29988 22.5591 7.37365 21.3055 6.76117 19.8268C5.97881 17.938 5.81808 15.9469 6.18478 14.0807Z" fill="url(#paint5_linear_2063_183)"/>
<defs>
<linearGradient id="paint0_linear_2063_183" x1="-194.831" y1="-469.589" x2="632.553" y2="-812.303" gradientUnits="userSpaceOnUse">
<stop stop-color="#FFD305" style="stop-color:#FFD305;stop-color:color(display-p3 1.0000 0.8275 0.0196);stop-opacity:1;"/>
<stop offset="1" stop-color="#FDCF01" style="stop-color:#FDCF01;stop-color:color(display-p3 0.9922 0.8118 0.0039);stop-opacity:1;"/>
</linearGradient>
<linearGradient id="paint1_linear_2063_183" x1="-174.287" y1="-435.553" x2="872.891" y2="-869.308" gradientUnits="userSpaceOnUse">
<stop stop-color="#52CF30" style="stop-color:#52CF30;stop-color:color(display-p3 0.3216 0.8118 0.1882);stop-opacity:1;"/>
<stop offset="1" stop-color="#3BBD1C" style="stop-color:#3BBD1C;stop-color:color(display-p3 0.2314 0.7412 0.1098);stop-opacity:1;"/>
</linearGradient>
<linearGradient id="paint2_linear_2063_183" x1="-181.741" y1="-461.39" x2="742.138" y2="-844.074" gradientUnits="userSpaceOnUse">
<stop stop-color="#14ADF6" style="stop-color:#14ADF6;stop-color:color(display-p3 0.0784 0.6784 0.9647);stop-opacity:1;"/>
<stop offset="1" stop-color="#1191F4" style="stop-color:#1191F4;stop-color:color(display-p3 0.0667 0.5686 0.9569);stop-opacity:1;"/>
</linearGradient>
<linearGradient id="paint3_linear_2063_183" x1="-190.069" y1="-481.494" x2="637.316" y2="-824.208" gradientUnits="userSpaceOnUse">
<stop stop-color="#CA70E1" style="stop-color:#CA70E1;stop-color:color(display-p3 0.7922 0.4392 0.8824);stop-opacity:1;"/>
<stop offset="1" stop-color="#B452CB" style="stop-color:#B452CB;stop-color:color(display-p3 0.7059 0.3216 0.7961);stop-opacity:1;"/>
</linearGradient>
<linearGradient id="paint4_linear_2063_183" x1="-183.041" y1="-442.751" x2="864.138" y2="-876.506" gradientUnits="userSpaceOnUse">
<stop stop-color="#FF645D" style="stop-color:#FF645D;stop-color:color(display-p3 1.0000 0.3922 0.3647);stop-opacity:1;"/>
<stop offset="1" stop-color="#FF4332" style="stop-color:#FF4332;stop-color:color(display-p3 1.0000 0.2627 0.1961);stop-opacity:1;"/>
</linearGradient>
<linearGradient id="paint5_linear_2063_183" x1="-191.572" y1="-458.991" x2="732.308" y2="-841.675" gradientUnits="userSpaceOnUse">
<stop stop-color="#FBB114" style="stop-color:#FBB114;stop-color:color(display-p3 0.9843 0.6941 0.0784);stop-opacity:1;"/>
<stop offset="1" stop-color="#FF9508" style="stop-color:#FF9508;stop-color:color(display-p3 1.0000 0.5843 0.0314);stop-opacity:1;"/>
</linearGradient>
</defs>
</svg>
