<svg width="32" height="32" viewBox="0 0 32 32" fill="none" xmlns="http://www.w3.org/2000/svg">
<path d="M16.6883 25.9785C16.0104 25.5938 15.3968 25.0699 14.8925 24.4127C12.8752 21.7837 13.3711 18.0173 16 16C16.4326 19.2854 19.4465 21.598 22.7319 21.1655C23.552 21.0575 24.3115 20.7887 24.9829 20.3949C23.3759 23.6872 20.1569 25.7366 16.6883 25.9785Z" fill="url(#paint0_linear_2063_183)"/>
<path d="M24.9829 20.3949C24.3115 20.7887 23.552 21.0575 22.7319 21.1655C19.4465 21.598 16.4326 19.2854 16 16C19.0615 17.2681 22.5713 15.8143 23.8394 12.7528C24.1562 11.9881 24.3031 11.1955 24.2976 10.4167C26.1016 13.1031 26.57 16.6132 25.2388 19.8268C25.1588 20.0201 25.0734 20.2095 24.9829 20.3949Z" fill="url(#paint1_linear_2063_183)"/>
<path d="M24.2975 10.4167C24.303 11.1955 24.1561 11.9881 23.8394 12.7528C22.5713 15.8143 19.0615 17.2681 16 16C18.6289 13.9827 19.1248 10.2162 17.1075 7.58731C16.6032 6.93008 15.9896 6.40616 15.3117 6.0215C16.8068 5.91722 18.3482 6.14873 19.8268 6.7612C21.7156 7.54356 23.2372 8.83788 24.2975 10.4167Z" fill="url(#paint2_linear_2063_183)"/>
<path d="M15.3118 6.0215C15.9896 6.40616 16.6032 6.93008 17.1076 7.58731C19.1248 10.2162 18.6289 13.9827 16 16C15.5675 12.7146 12.5535 10.402 9.26818 10.8345C8.44804 10.9425 7.68851 11.2113 7.01717 11.6051C8.6241 8.31276 11.8432 6.26343 15.3118 6.0215Z" fill="url(#paint3_linear_2063_183)"/>
<path d="M7.0172 11.6051C7.68854 11.2113 8.44807 10.9425 9.26821 10.8345C12.5536 10.402 15.5675 12.7146 16 16C12.9386 14.7319 9.42876 16.1857 8.16066 19.2472C7.84391 20.0119 7.69698 20.8045 7.70251 21.5833C5.89852 18.8969 5.4301 15.3868 6.76124 12.1732C6.84128 11.9799 6.92668 11.7905 7.0172 11.6051Z" fill="url(#paint4_linear_2063_183)"/>
<path d="M7.7025 21.5833C7.69697 20.8045 7.84389 20.0119 8.16064 19.2472C9.42874 16.1857 12.9386 14.7319 16 16C13.3711 18.0173 12.8752 21.7837 14.8925 24.4127C15.3968 25.0699 16.0104 25.5938 16.6883 25.9785C15.1932 26.0828 13.6518 25.8513 12.1732 25.2388C10.2844 24.4564 8.76277 23.1621 7.7025 21.5833Z" fill="url(#paint5_linear_2063_183)"/>
<defs>
<linearGradient id="paint0_linear_2063_183" x1="-476.444" y1="-178.283" x2="-133.73" y2="-1005.67" gradientUnits="userSpaceOnUse">
<stop stop-color="#FFD305" style="stop-color:#FFD305;stop-color:color(display-p3 1.0000 0.8275 0.0196);stop-opacity:1;"/>
<stop offset="1" stop-color="#FDCF01" style="stop-color:#FDCF01;stop-color:color(display-p3 0.9922 0.8118 0.0039);stop-opacity:1;"/>
</linearGradient>
<linearGradient id="paint1_linear_2063_183" x1="-437.849" y1="-168.742" x2="-4.09375" y2="-1215.92" gradientUnits="userSpaceOnUse">
<stop stop-color="#52CF30" style="stop-color:#52CF30;stop-color:color(display-p3 0.3216 0.8118 0.1882);stop-opacity:1;"/>
<stop offset="1" stop-color="#3BBD1C" style="stop-color:#3BBD1C;stop-color:color(display-p3 0.2314 0.7412 0.1098);stop-opacity:1;"/>
</linearGradient>
<linearGradient id="paint2_linear_2063_183" x1="-461.39" y1="-181.741" x2="-78.7067" y2="-1105.62" gradientUnits="userSpaceOnUse">
<stop stop-color="#14ADF6" style="stop-color:#14ADF6;stop-color:color(display-p3 0.0784 0.6784 0.9647);stop-opacity:1;"/>
<stop offset="1" stop-color="#1191F4" style="stop-color:#1191F4;stop-color:color(display-p3 0.0667 0.5686 0.9569);stop-opacity:1;"/>
</linearGradient>
<linearGradient id="paint3_linear_2063_183" x1="-481.494" y1="-190.069" x2="-138.78" y2="-1017.45" gradientUnits="userSpaceOnUse">
<stop stop-color="#CA70E1" style="stop-color:#CA70E1;stop-color:color(display-p3 0.7922 0.4392 0.8824);stop-opacity:1;"/>
<stop offset="1" stop-color="#B452CB" style="stop-color:#B452CB;stop-color:color(display-p3 0.7059 0.3216 0.7961);stop-opacity:1;"/>
</linearGradient>
<linearGradient id="paint4_linear_2063_183" x1="-449.129" y1="-167.642" x2="-15.3732" y2="-1214.82" gradientUnits="userSpaceOnUse">
<stop stop-color="#FF645D" style="stop-color:#FF645D;stop-color:color(display-p3 1.0000 0.3922 0.3647);stop-opacity:1;"/>
<stop offset="1" stop-color="#FF4332" style="stop-color:#FF4332;stop-color:color(display-p3 1.0000 0.2627 0.1961);stop-opacity:1;"/>
</linearGradient>
<linearGradient id="paint5_linear_2063_183" x1="-466.645" y1="-173.094" x2="-83.9613" y2="-1096.97" gradientUnits="userSpaceOnUse">
<stop stop-color="#FBB114" style="stop-color:#FBB114;stop-color:color(display-p3 0.9843 0.6941 0.0784);stop-opacity:1;"/>
<stop offset="1" stop-color="#FF9508" style="stop-color:#FF9508;stop-color:color(display-p3 1.0000 0.5843 0.0314);stop-opacity:1;"/>
</linearGradient>
</defs>
</svg>
