<svg width="32" height="32" viewBox="0 0 32 32" fill="none" xmlns="http://www.w3.org/2000/svg">
<path d="M6.51772 12.8173C7.1325 12.3382 7.85137 11.9718 8.65156 11.7574C11.8524 10.8997 15.1424 12.7992 16 16C12.7992 15.1424 9.50921 17.0418 8.65156 20.2426C8.43746 21.0417 8.39518 21.8463 8.50207 22.6172C6.07531 19.8727 5.41386 16.1144 6.51772 12.8173Z" fill="url(#paint0_linear_2063_183)"/>
<path d="M8.50208 22.6172C8.39519 21.8463 8.43747 21.0417 8.65157 20.2426C9.50922 17.0418 12.7992 15.1423 16 16C13.6569 18.3431 13.6569 22.1421 16 24.4853C16.5853 25.0705 17.2614 25.5096 17.983 25.8025C14.8108 26.4412 11.3886 25.5307 8.92897 23.0711C8.78108 22.9232 8.63878 22.7718 8.50208 22.6172Z" fill="url(#paint1_linear_2063_183)"/>
<path d="M17.983 25.8025C17.2614 25.5096 16.5853 25.0705 16 24.4853C13.6569 22.1421 13.6569 18.3431 16 16C16.8577 19.2008 20.1477 21.1003 23.3485 20.2426C24.1487 20.0282 24.8676 19.6618 25.4823 19.1827C25.0065 20.6039 24.2028 21.9394 23.0711 23.0711C21.6255 24.5167 19.8474 25.4272 17.983 25.8025Z" fill="url(#paint2_linear_2063_183)"/>
<path d="M25.4823 19.1827C24.8675 19.6618 24.1487 20.0282 23.3485 20.2426C20.1477 21.1003 16.8577 19.2008 16 16C19.2008 16.8577 22.4908 14.9582 23.3485 11.7574C23.5626 10.9583 23.6049 10.1537 23.498 9.3828C25.9247 12.1273 26.5862 15.8856 25.4823 19.1827Z" fill="url(#paint3_linear_2063_183)"/>
<path d="M23.498 9.3828C23.6049 10.1537 23.5626 10.9583 23.3485 11.7574C22.4908 14.9582 19.2008 16.8576 16 16C18.3432 13.6569 18.3432 9.85786 16 7.51472C15.4148 6.92945 14.7387 6.49036 14.0171 6.19747C17.1893 5.55881 20.6115 6.4693 23.0711 8.92893C23.219 9.07683 23.3613 9.22821 23.498 9.3828Z" fill="url(#paint4_linear_2063_183)"/>
<path d="M14.0171 6.19747C14.7387 6.49036 15.4148 6.92944 16 7.51472C18.3432 9.85786 18.3432 13.6569 16 16C15.1424 12.7992 11.8524 10.8997 8.65156 11.7574C7.85136 11.9718 7.1325 12.3382 6.51772 12.8173C6.9935 11.3961 7.79725 10.0606 8.92896 8.92893C10.3746 7.48332 12.1527 6.57283 14.0171 6.19747Z" fill="url(#paint5_linear_2063_183)"/>
<defs>
<linearGradient id="paint0_linear_2063_183" x1="383.945" y1="-364.61" x2="1017.2" y2="268.643" gradientUnits="userSpaceOnUse">
<stop stop-color="#FFD305" style="stop-color:#FFD305;stop-color:color(display-p3 1.0000 0.8275 0.0196);stop-opacity:1;"/>
<stop offset="1" stop-color="#FDCF01" style="stop-color:#FDCF01;stop-color:color(display-p3 0.9922 0.8118 0.0039);stop-opacity:1;"/>
</linearGradient>
<linearGradient id="paint1_linear_2063_183" x1="360.36" y1="-332.604" x2="1161.84" y2="468.872" gradientUnits="userSpaceOnUse">
<stop stop-color="#52CF30" style="stop-color:#52CF30;stop-color:color(display-p3 0.3216 0.8118 0.1882);stop-opacity:1;"/>
<stop offset="1" stop-color="#3BBD1C" style="stop-color:#3BBD1C;stop-color:color(display-p3 0.2314 0.7412 0.1098);stop-opacity:1;"/>
</linearGradient>
<linearGradient id="paint2_linear_2063_183" x1="381.379" y1="-349.379" x2="1088.49" y2="357.728" gradientUnits="userSpaceOnUse">
<stop stop-color="#14ADF6" style="stop-color:#14ADF6;stop-color:color(display-p3 0.0784 0.6784 0.9647);stop-opacity:1;"/>
<stop offset="1" stop-color="#1191F4" style="stop-color:#1191F4;stop-color:color(display-p3 0.0667 0.5686 0.9569);stop-opacity:1;"/>
</linearGradient>
<linearGradient id="paint3_linear_2063_183" x1="396.766" y1="-364.766" x2="1030.02" y2="268.487" gradientUnits="userSpaceOnUse">
<stop stop-color="#CA70E1" style="stop-color:#CA70E1;stop-color:color(display-p3 0.7922 0.4392 0.8824);stop-opacity:1;"/>
<stop offset="1" stop-color="#B452CB" style="stop-color:#B452CB;stop-color:color(display-p3 0.7059 0.3216 0.7961);stop-opacity:1;"/>
</linearGradient>
<linearGradient id="paint4_linear_2063_183" x1="363.661" y1="-343.446" x2="1165.14" y2="458.03" gradientUnits="userSpaceOnUse">
<stop stop-color="#FF645D" style="stop-color:#FF645D;stop-color:color(display-p3 1.0000 0.3922 0.3647);stop-opacity:1;"/>
<stop offset="1" stop-color="#FF4332" style="stop-color:#FF4332;stop-color:color(display-p3 1.0000 0.2627 0.1961);stop-opacity:1;"/>
</linearGradient>
<linearGradient id="paint5_linear_2063_183" x1="375.4" y1="-357.542" x2="1082.51" y2="349.564" gradientUnits="userSpaceOnUse">
<stop stop-color="#FBB114" style="stop-color:#FBB114;stop-color:color(display-p3 0.9843 0.6941 0.0784);stop-opacity:1;"/>
<stop offset="1" stop-color="#FF9508" style="stop-color:#FF9508;stop-color:color(display-p3 1.0000 0.5843 0.0314);stop-opacity:1;"/>
</linearGradient>
</defs>
</svg>
