<svg width="32" height="32" viewBox="0 0 32 32" fill="none" xmlns="http://www.w3.org/2000/svg">
<path fill-rule="evenodd" clip-rule="evenodd" d="M20.219 19.4593C20.218 19.6843 20.165 19.9103 20.064 20.1123L17.309 25.6203C17.06 26.1183 16.559 26.4283 16.002 26.4283C15.445 26.4283 14.944 26.1183 14.695 25.6203L11.94 20.1123C11.839 19.9103 11.785 19.6843 11.785 19.4593C11.785 18.6533 12.441 17.9983 13.247 17.9983H18.757C19.157 17.9983 19.532 18.1563 19.808 18.4443C20.073 18.7183 20.219 19.0793 20.219 19.4593ZM20.2181 12.536C20.2181 13.342 19.5631 13.998 18.7561 13.998H13.2471C12.4411 13.998 11.7851 13.343 11.7851 12.536C11.7851 12.311 11.8391 12.086 11.9401 11.883L14.6951 6.378C14.9441 5.88 15.4451 5.57 16.0021 5.57C16.5591 5.57 17.0601 5.88 17.3091 6.378L20.0641 11.883C20.1651 12.085 20.2181 12.311 20.2181 12.536Z" fill="white" style="fill:white;fill-opacity:1;"/>
<path fill-rule="evenodd" clip-rule="evenodd" d="M16.4142 25.1733L19.1692 19.6653C19.3222 19.3583 19.0992 18.9983 18.7562 18.9983H13.2472C12.9042 18.9983 12.6812 19.3583 12.8342 19.6653L15.5892 25.1733C15.7592 25.5133 16.2442 25.5133 16.4142 25.1733ZM15.5893 6.8251L12.8343 12.3301C12.6813 12.6371 12.9043 12.9981 13.2473 12.9981H18.7563C19.0993 12.9981 19.3223 12.6371 19.1693 12.3301L16.4143 6.8251C16.2443 6.4851 15.7593 6.4851 15.5893 6.8251Z" fill="black" style="fill:black;fill-opacity:1;"/>
</svg>
