<svg width="32" height="32" viewBox="0 0 32 32" fill="none" xmlns="http://www.w3.org/2000/svg">
<path fill-rule="evenodd" clip-rule="evenodd" d="M5.30099 10.8543L13.684 19.2553C14.737 20.3113 13.99 22.1133 12.499 22.1133L11.275 22.1132L12.4908 25.0009C12.7038 25.5069 12.7068 26.0669 12.4998 26.5759C12.2918 27.0859 11.8978 27.4839 11.3898 27.6969C11.1338 27.8039 10.8658 27.8579 10.5918 27.8579C9.76079 27.8579 9.01579 27.3629 8.69379 26.5969L7.41599 23.5592L6.58399 24.2973C5.50299 25.2533 3.79999 24.4863 3.79999 23.0423V11.4753C3.79999 10.6913 4.74699 10.2993 5.30099 10.8543Z" fill="white" style="fill:white;fill-opacity:1;"/>
<path fill-rule="evenodd" clip-rule="evenodd" d="M4.7995 12.1234C4.7995 11.9924 4.9585 11.9264 5.0505 12.0194L12.9585 19.9444C13.3895 20.3764 13.0835 21.1134 12.4735 21.1134L9.7695 21.1119L11.5691 25.3878C11.7961 25.9278 11.5421 26.5488 11.0031 26.7748C10.4621 27.0018 9.8421 26.7488 9.6161 26.2098L7.7985 21.8859L5.9385 23.5334C5.5225 23.9014 4.88062 23.6449 4.80654 23.1215L4.7995 23.0204V12.1234Z" fill="black" style="fill:black;fill-opacity:1;"/>
<path d="M27.365 8.57363C27.2883 9.19201 27.089 9.80556 26.7579 10.3792C25.4332 12.6735 22.4994 13.4596 20.205 12.135C22.4994 10.8103 23.2855 7.87652 21.9609 5.58215C21.6302 5.00939 21.1992 4.53063 20.703 4.15523C23.6264 4.33487 26.1251 6.0856 27.365 8.57363Z" fill="url(#paint0_linear_2047_212)"/>
<path d="M20.7029 4.15522C21.1992 4.53062 21.6302 5.00939 21.9608 5.58214C23.2855 7.87651 22.4994 10.8103 20.205 12.135C20.205 9.48566 18.0573 7.33797 15.408 7.33797C14.7463 7.33797 14.1158 7.47196 13.5423 7.7143C14.9746 5.55989 17.424 4.13997 20.205 4.13997C20.3722 4.13997 20.5383 4.1451 20.7029 4.15522Z" fill="url(#paint1_linear_2047_212)"/>
<path d="M13.5423 7.7143C14.1158 7.47196 14.7463 7.33797 15.408 7.33797C18.0573 7.33797 20.205 9.48566 20.205 12.135C17.9106 10.8103 14.9768 11.5964 13.6522 13.8908C13.321 14.4644 13.1218 15.0779 13.0451 15.6963C12.5106 14.6239 12.21 13.4145 12.21 12.135C12.21 10.5005 12.7005 8.98052 13.5423 7.7143Z" fill="url(#paint2_linear_2047_212)"/>
<path d="M13.0451 15.6963C13.1218 15.0779 13.321 14.4644 13.6522 13.8908C14.9768 11.5964 17.9106 10.8103 20.205 12.1349C17.9106 13.4596 17.1245 16.3934 18.4492 18.6878C18.7799 19.2605 19.2108 19.7393 19.7071 20.1147C16.7836 19.9351 14.285 18.1843 13.0451 15.6963Z" fill="url(#paint3_linear_2047_212)"/>
<path d="M19.7071 20.1147C19.2109 19.7393 18.7799 19.2605 18.4492 18.6878C17.1246 16.3934 17.9107 13.4596 20.205 12.135C20.205 14.7843 22.3527 16.932 25.002 16.932C25.6638 16.932 26.2942 16.798 26.8677 16.5556C25.4354 18.71 22.9861 20.13 20.205 20.13C20.0378 20.13 19.8718 20.1248 19.7071 20.1147Z" fill="url(#paint4_linear_2047_212)"/>
<path d="M26.8677 16.5556C26.2942 16.798 25.6638 16.932 25.002 16.932C22.3527 16.932 20.205 14.7843 20.205 12.135C22.4994 13.4596 25.4332 12.6735 26.7578 10.3791C27.089 9.80556 27.2882 9.19201 27.365 8.57362C27.8994 9.64602 28.2 10.8554 28.2 12.135C28.2 13.7695 27.7095 15.2894 26.8677 16.5556Z" fill="url(#paint5_linear_2047_212)"/>
<defs>
<linearGradient id="paint0_linear_2047_212" x1="27.365" y1="435.316" x2="-688.631" y2="435.316" gradientUnits="userSpaceOnUse">
<stop stop-color="#FFD305" style="stop-color:#FFD305;stop-color:color(display-p3 1.0000 0.8275 0.0196);stop-opacity:1;"/>
<stop offset="1" stop-color="#FDCF01" style="stop-color:#FDCF01;stop-color:color(display-p3 0.9922 0.8118 0.0039);stop-opacity:1;"/>
</linearGradient>
<linearGradient id="paint1_linear_2047_212" x1="22.6043" y1="403.89" x2="-883.595" y2="403.89" gradientUnits="userSpaceOnUse">
<stop stop-color="#52CF30" style="stop-color:#52CF30;stop-color:color(display-p3 0.3216 0.8118 0.1882);stop-opacity:1;"/>
<stop offset="1" stop-color="#3BBD1C" style="stop-color:#3BBD1C;stop-color:color(display-p3 0.2314 0.7412 0.1098);stop-opacity:1;"/>
</linearGradient>
<linearGradient id="paint2_linear_2047_212" x1="20.205" y1="425.255" x2="-779.295" y2="425.255" gradientUnits="userSpaceOnUse">
<stop stop-color="#14ADF6" style="stop-color:#14ADF6;stop-color:color(display-p3 0.0784 0.6784 0.9647);stop-opacity:1;"/>
<stop offset="1" stop-color="#1191F4" style="stop-color:#1191F4;stop-color:color(display-p3 0.0667 0.5686 0.9569);stop-opacity:1;"/>
</linearGradient>
<linearGradient id="paint3_linear_2047_212" x1="20.205" y1="442.653" x2="-695.791" y2="442.653" gradientUnits="userSpaceOnUse">
<stop stop-color="#CA70E1" style="stop-color:#CA70E1;stop-color:color(display-p3 0.7922 0.4392 0.8824);stop-opacity:1;"/>
<stop offset="1" stop-color="#B452CB" style="stop-color:#B452CB;stop-color:color(display-p3 0.7059 0.3216 0.7961);stop-opacity:1;"/>
</linearGradient>
<linearGradient id="paint4_linear_2047_212" x1="26.8677" y1="411.885" x2="-879.332" y2="411.885" gradientUnits="userSpaceOnUse">
<stop stop-color="#FF645D" style="stop-color:#FF645D;stop-color:color(display-p3 1.0000 0.3922 0.3647);stop-opacity:1;"/>
<stop offset="1" stop-color="#FF4332" style="stop-color:#FF4332;stop-color:color(display-p3 1.0000 0.2627 0.1961);stop-opacity:1;"/>
</linearGradient>
<linearGradient id="paint5_linear_2047_212" x1="28.2" y1="426.491" x2="-771.3" y2="426.491" gradientUnits="userSpaceOnUse">
<stop stop-color="#FBB114" style="stop-color:#FBB114;stop-color:color(display-p3 0.9843 0.6941 0.0784);stop-opacity:1;"/>
<stop offset="1" stop-color="#FF9508" style="stop-color:#FF9508;stop-color:color(display-p3 1.0000 0.5843 0.0314);stop-opacity:1;"/>
</linearGradient>
</defs>
</svg>
