<svg width="32" height="32" viewBox="0 0 32 32" fill="none" xmlns="http://www.w3.org/2000/svg">
<path fill-rule="evenodd" clip-rule="evenodd" d="M23 11.25C23 12.353 22.103 13.25 21 13.25H11C9.897 13.25 9 12.353 9 11.25C9 10.147 9.897 9.25 11 9.25H21C22.103 9.25 23 10.147 23 11.25ZM19.7852 16.6064C19.7852 16.8184 19.7342 17.0324 19.6392 17.2234L17.2562 21.9854C17.0212 22.4564 16.5482 22.7494 16.0212 22.7504C15.4932 22.7504 15.0192 22.4574 14.7842 21.9864L12.4012 17.2244C12.3052 17.0334 12.2542 16.8194 12.2542 16.6064C12.2542 15.8434 12.8752 15.2234 13.6382 15.2234H18.4022C18.7812 15.2234 19.1352 15.3734 19.3972 15.6464C19.6472 15.9054 19.7852 16.2474 19.7852 16.6064Z" fill="white" style="fill:white;fill-opacity:1;"/>
<path fill-rule="evenodd" clip-rule="evenodd" d="M22 11.25C22 11.802 21.552 12.25 21 12.25H11C10.448 12.25 10 11.802 10 11.25C10 10.698 10.448 10.25 11 10.25H21C21.552 10.25 22 10.698 22 11.25ZM16.362 21.5384L18.744 16.7774C18.871 16.5234 18.686 16.2234 18.402 16.2234H13.638C13.353 16.2234 13.168 16.5234 13.295 16.7774L15.678 21.5384C15.819 21.8204 16.221 21.8204 16.362 21.5384Z" fill="black" style="fill:black;fill-opacity:1;"/>
</svg>
